<svg xmlns:xlink="http://www.w3.org/1999/xlink" xmlns="http://www.w3.org/2000/svg" width="759px" height="328px" viewBox="0 0 759 328" style=""><defs><path fill="rgb(51,102,153)" stroke="rgb(51,102,153)" d="M 5,-5 L 0,0 L 5,5 Z" fill-opacity="1" stroke-opacity="1" stroke-width="1" stroke-linecap="butt" stroke-linejoin="miter" stroke-miterlimit="10" id="ygc97_0"/></defs><g style="pointer-events:visiblePainted" transform="translate(239 204)" image-rendering="auto" shape-rendering="auto"><g><path fill="none" stroke="rgb(51,102,153)" d="M -66.02354359567914,37.20000000000016 L -66.02354359567914,-54.66808127572017 L 36.8469007201646,-54.66808127572017 L 36.8469007201646,-70.58616255144034" stroke-opacity="1" stroke-width="1" stroke-linecap="butt" stroke-linejoin="miter" stroke-miterlimit="10"/><use xlink:href="#ygc97_0" transform="matrix(0 0.75 -0.75 0 36.8469 -74.3362)" style="pointer-events: none;"/></g><g><path fill="none" stroke="rgb(51,102,153)" d="M -85.22354359567908,37.20000000000016 L -85.22354359567908,-139.66808127572017 L 36.8469007201646,-139.66808127572017 L 36.8469007201646,-155.58616255144034" stroke-opacity="1" stroke-width="1" stroke-linecap="butt" stroke-linejoin="miter" stroke-miterlimit="10"/><use xlink:href="#ygc97_0" transform="matrix(0 0.75 -0.75 0 36.8469 -159.336)" style="pointer-events: none;"/></g><g><path fill="none" stroke="rgb(51,102,153)" d="M 36.8469007201646,37.20000000000016 L 36.8469007201646,14.413837448559661" stroke-opacity="1" stroke-width="1" stroke-linecap="butt" stroke-linejoin="miter" stroke-miterlimit="10"/><use xlink:href="#ygc97_0" transform="matrix(0 0.75 -0.75 0 36.8469 10.6638)" style="pointer-events: none;"/></g><g><path fill="none" stroke="rgb(51,102,153)" d="M 104.6938014403292,-97.16808127572017 L 172.25,-97.16808127572017" stroke-opacity="1" stroke-width="1" stroke-linecap="butt" stroke-linejoin="miter" stroke-miterlimit="10"/><use xlink:href="#ygc97_0" transform="matrix(-0.75 0 0 -0.75 176 -97.1681)" style="pointer-events: none;"/></g><g><path fill="none" stroke="rgb(51,102,153)" d="M 104.6938014403292,-182.16808127572017 L 173.75685897088755,-108.26287923324676" stroke-opacity="1" stroke-width="1" stroke-linecap="butt" stroke-linejoin="miter" stroke-miterlimit="10"/><use xlink:href="#ygc97_0" transform="matrix(-0.512075 -0.547977 0.547977 -0.512075 176.317 -105.523)" style="pointer-events: none;"/></g><g><path fill="none" stroke="rgb(51,102,153)" d="M 104.6938014403292,-12.16808127572017 L 173.72976004994976,-84.8933056768538" stroke-opacity="1" stroke-width="1" stroke-linecap="butt" stroke-linejoin="miter" stroke-miterlimit="10"/><use xlink:href="#ygc97_0" transform="matrix(-0.516354 0.543948 -0.543948 -0.516354 176.312 -87.613)" style="pointer-events: none;"/></g><g><path fill="none" stroke="rgb(51,102,153)" d="M 244.84690072016463,37.20000000000016 L 244.8469007201646,-70.58616255144034" stroke-opacity="1" stroke-width="1" stroke-linecap="butt" stroke-linejoin="miter" stroke-miterlimit="10"/><use xlink:href="#ygc97_0" transform="matrix(1.97765e-16 0.75 -0.75 1.97765e-16 244.847 -74.3362)" style="pointer-events: none;"/></g><g><path fill="none" stroke="rgb(51,102,153)" d="M -103.3061985596708,-182.16808127572017 L -35.75,-182.16808127572017" stroke-opacity="1" stroke-width="1" stroke-linecap="butt" stroke-linejoin="miter" stroke-miterlimit="10"/><use xlink:href="#ygc97_0" transform="matrix(-0.75 0 0 -0.75 -32 -182.168)" style="pointer-events: none;"/></g><g><path fill="none" stroke="rgb(51,102,153)" d="M 312.6938014403292,-97.16808127572017 L 380.25,-97.16808127572017" stroke-opacity="1" stroke-width="1" stroke-linecap="butt" stroke-linejoin="miter" stroke-miterlimit="10"/><use xlink:href="#ygc97_0" transform="matrix(-0.75 0 0 -0.75 384 -97.1681)" style="pointer-events: none;"/></g><g><path fill="none" stroke="rgb(51,102,153)" d="M 452.8469007201646,-75.33616255144034 L 452.8469007201646,73.83191872427994 L 293.0438014403292,73.83191872427994" stroke-opacity="1" stroke-width="1" stroke-linecap="butt" stroke-linejoin="miter" stroke-miterlimit="10"/><use xlink:href="#ygc97_0" transform="matrix(0.75 0 0 0.75 289.294 73.8319)" style="pointer-events: none;"/></g><rect fill="rgb(255,255,255)" stroke="rgb(167,167,167)" stroke-opacity="1" stroke-width="1" stroke-linecap="square" stroke-linejoin="miter" stroke-miterlimit="10" fill-opacity="1" y="-119" x="-31" width="135.694" height="43.6638"/><rect fill="rgb(255,255,255)" stroke="rgb(167,167,167)" stroke-opacity="1" stroke-width="1" stroke-linecap="square" stroke-linejoin="miter" stroke-miterlimit="10" fill-opacity="1" y="-34" x="-31" width="135.694" height="43.6638"/><rect fill="rgb(255,255,255)" stroke="rgb(167,167,167)" stroke-opacity="1" stroke-width="1" stroke-linecap="square" stroke-linejoin="miter" stroke-miterlimit="10" fill-opacity="1" y="-204" x="-31" width="135.694" height="43.6638"/><rect fill="rgb(255,255,255)" stroke="rgb(167,167,167)" stroke-opacity="1" stroke-width="1" stroke-linecap="square" stroke-linejoin="miter" stroke-miterlimit="10" fill-opacity="1" y="-119" x="177" width="135.694" height="43.6638"/><rect fill="rgb(255,255,255)" stroke="rgb(167,167,167)" stroke-opacity="1" stroke-width="1" stroke-linecap="square" stroke-linejoin="miter" stroke-miterlimit="10" fill-opacity="1" y="-119" x="385" width="135.694" height="43.6638"/><rect fill="rgb(255,255,255)" stroke="rgb(167,167,167)" stroke-opacity="1" stroke-width="1" stroke-linecap="square" stroke-linejoin="miter" stroke-miterlimit="10" fill-opacity="1" y="51" x="-198.6" width="135.694" height="43.6638"/><rect fill="rgb(255,255,255)" stroke="rgb(167,167,167)" stroke-opacity="1" stroke-width="1" stroke-linecap="square" stroke-linejoin="miter" stroke-miterlimit="10" fill-opacity="1" y="51" x="-29.8" width="135.694" height="43.6638"/><rect fill="rgb(255,255,255)" stroke="rgb(167,167,167)" stroke-opacity="1" stroke-width="1" stroke-linecap="square" stroke-linejoin="miter" stroke-miterlimit="10" fill-opacity="1" y="-204" x="-239" width="135.694" height="43.6638"/><rect fill="rgb(255,255,255)" stroke="rgb(167,167,167)" stroke-opacity="1" stroke-width="1" stroke-linecap="square" stroke-linejoin="miter" stroke-miterlimit="10" fill-opacity="1" y="51" x="139" width="135.694" height="43.6638"/><rect fill="rgb(255,255,255)" stroke="rgb(167,167,167)" stroke-opacity="1" stroke-width="1" stroke-linecap="square" stroke-linejoin="miter" stroke-miterlimit="10" fill-opacity="0" y="37.2" x="-214.6" width="502.894" height="73.2638"/><g transform="translate(-18.176536779835402 -104.16808127572017)"><text font-family="Arial" font-size="12px" font-style="normal" font-weight="normal" text-anchor="middle" fill="rgb(0,0,0)" fill-opacity="1" dy="1em" transform="translate(55.0234375 0)">Nullspace Controller</text></g><g transform="translate(-7.168724279835402 -19.16808127572017)"><text font-family="Arial" font-size="12px" font-style="normal" font-weight="normal" text-anchor="middle" fill="rgb(0,0,0)" fill-opacity="1" dy="1em" transform="translate(44.015625 0)">Force Controller</text></g><g transform="translate(-13.176536779835402 -189.16808127572017)"><text font-family="Arial" font-size="12px" font-style="normal" font-weight="normal" text-anchor="middle" fill="rgb(0,0,0)" fill-opacity="1" dy="1em" transform="translate(50.0234375 0)">Position Controller</text></g><g transform="translate(189.4875257201646 -104.16808127572017)"><text font-family="Arial" font-size="12px" font-style="normal" font-weight="normal" text-anchor="middle" fill="rgb(0,0,0)" fill-opacity="1" dy="1em" transform="translate(55.359375 0)">Projection Combiner</text></g><g transform="translate(410.6594007201646 -104.16808127572017)"><text font-family="Arial" font-size="12px" font-style="normal" font-weight="normal" text-anchor="middle" fill="rgb(0,0,0)" fill-opacity="1" dy="1em" transform="translate(42.1875 0)">Robot Interface</text></g><g transform="translate(-184.7687242798353 65.83191872427983)"><text font-family="Arial" font-size="12px" font-style="normal" font-weight="normal" text-anchor="middle" fill="rgb(0,0,0)" fill-opacity="1" dy="1em" transform="translate(54.015625 0)">Forward Kinematics</text></g><g transform="translate(-10.132786779835357 65.83191872427983)"><text font-family="Arial" font-size="12px" font-style="normal" font-weight="normal" text-anchor="middle" fill="rgb(0,0,0)" fill-opacity="1" dy="1em" transform="translate(48.1796875 0)">Inverse Dynamics</text></g><g transform="translate(-227.2859117798354 -189.16808127572017)"><text font-family="Arial" font-size="12px" font-style="normal" font-weight="normal" text-anchor="middle" fill="rgb(0,0,0)" fill-opacity="1" dy="1em" transform="translate(56.1328125 0)">Trajectory Generator</text></g><g transform="translate(144.48752572016454 65.83191872427983)"><text font-family="Arial" font-size="12px" font-style="normal" font-weight="normal" text-anchor="middle" fill="rgb(0,0,0)" fill-opacity="1" dy="1em" transform="translate(62.359375 0)">Constrained Auxiliaries</text></g><g transform="translate(-16.176536779835402 110.46383744855973)"><text font-family="Arial" font-size="12px" font-style="normal" font-weight="normal" text-anchor="middle" fill="rgb(0,0,0)" fill-opacity="1" dy="1em" transform="translate(53.0234375 0)">Helper Calculations</text></g></g><g transform="translate(5,303)"><a xmlns:xlink="http://www.w3.org/1999/xlink" xlink:href="https://www.yworks.com" target="_blank"><g width="30px" height="30px" transform="scale(0.05)"><circle fill="#6699CC" cx="177.294" cy="267.55" r="177.294"/><path fill="#010202" d="M198.431,0c-32.78,0-62.211,41.495-76.26,86.292c1.333,6.043,5.353,10.72,12.708,8.72 c14.03-28.098,25.417-50.845,38.802-50.845c12.705,0,24.079,26.092,25.417,100.341c0.653,56.862-4.032,118.379-13.38,152.477 c-12.709,44.173-42.14,86.298-58.861,100.347c-16.054,13.377-28.1,18.727-36.796,18.727c-10.702,0-16.708-8.694-18.731-12.038 c-4.665-6.688-11.35-10.705-18.039-10.705c-14.736,0-26.761,12.038-26.761,28.78c0,16.71,13.361,30.754,34.789,30.754 c21.385,0,54.832-10.699,104.333-67.545c53.518-60.889,76.932-105.019,110.357-160.547 c59.531-100.981,78.263-187.284,77.591-204.005c0-7.355-2.005-10.699-6.021-13.376c-5.345-3.344-14.038-6.022-18.721-6.022 c-4.684,0-14.721,1.344-16.06,20.764c-0.667,17.382-10.705,84.927-24.743,123.734c-14.726,40.786-34.103,82.26-56.184,115.014 h-2.688c9.366-55.501,10.702-104.314,10.054-147.122C237.876,66.915,232.524,0,198.431,0"/></g></a><a xmlns:xlink="http://www.w3.org/1999/xlink" xlink:href="https://www.yworks.com/yed-live" target="_blank" transform="translate(22,17)"><text font-family="sans-serif" font-size="12px">Created with yEd Live</text></a></g></svg>